{
  "accessors": [
    {
      "bufferView": 2,
      "componentType": 5126,
      "count": 2924,
      "max": [
        14.005500793457031,
        12.071000099182129,
        1.0329005718231201
      ],
      "min": [
        -14.005496978759766,
        -9.6700725555419922,
        -21.154701232910156
      ],
      "type": "VEC3"
    },
    {
      "bufferView": 2,
      "byteOffset": 35088,
      "componentType": 5126,
      "count": 2924,
      "max": [
        1.0000001192092896,
        0.99995875358581543,
        0.99999970197677612
      ],
      "min": [
        -1.0000001192092896,
        -0.99998611211776733,
        -0.99999004602432251
      ],
      "type": "VEC3"
    },
    {
      "bufferView": 3,
      "componentType": 5126,
      "count": 2924,
      "max": [
        1,
        0.99968057870864868,
        0.99999445676803589,
        1
      ],
      "min": [
        -1,
        -0.99999475479125977,
        -0.99999016523361206,
        -1
      ],
      "type": "VEC4"
    },
    {
      "bufferView": 1,
      "componentType": 5126,
      "count": 2924,
      "max": [
        0.9956049919128418,
        1.0187100172042847
      ],
      "min": [
        -0.99621599912643433,
        0.0011289709946140647
      ],
      "type": "VEC2"
    },
    {
      "bufferView": 0,
      "componentType": 5125,
      "count": 12624,
      "max": [
        2923
      ],
      "min": [
        0
      ],
      "type": "SCALAR"
    },
    {
      "bufferView": 2,
      "byteOffset": 70176,
      "componentType": 5126,
      "count": 32,
      "max": [
        1.9317994117736816,
        9.2834205627441406,
        -16.215505599975586
      ],
      "min": [
        -1.9318008422851562,
        8.068150520324707,
        -17.587907791137695
      ],
      "type": "VEC3"
    },
    {
      "bufferView": 2,
      "byteOffset": 70560,
      "componentType": 5126,
      "count": 32,
      "max": [
        0.87852925062179565,
        0.9346461296081543,
        0.12824045121669769
      ],
      "min": [
        -0.87852925062179565,
        0.35362982749938965,
        -0.58225154876708984
      ],
      "type": "VEC3"
    },
    {
      "bufferView": 3,
      "byteOffset": 46784,
      "componentType": 5126,
      "count": 32,
      "max": [
        0.94078361988067627,
        0.90886259078979492,
        0.13148680329322815,
        1
      ],
      "min": [
        0.41609561443328857,
        -0.90886354446411133,
        -0.13148477673530579,
        1
      ],
      "type": "VEC4"
    },
    {
      "bufferView": 1,
      "byteOffset": 23392,
      "componentType": 5126,
      "count": 32,
      "max": [
        0.9790949821472168,
        1.8201800584793091
      ],
      "min": [
        0.020904950797557831,
        1.169469952583313
      ],
      "type": "VEC2"
    },
    {
      "bufferView": 0,
      "byteOffset": 50496,
      "componentType": 5125,
      "count": 108,
      "max": [
        31
      ],
      "min": [
        0
      ],
      "type": "SCALAR"
    },
    {
      "bufferView": 2,
      "byteOffset": 70944,
      "componentType": 5126,
      "count": 16,
      "max": [
        1.9318009614944458,
        -8.0839357376098633,
        17.629589080810547
      ],
      "min": [
        0.56856739521026611,
        -9.2991952896118164,
        16.257219314575195
      ],
      "type": "VEC3"
    },
    {
      "bufferView": 2,
      "byteOffset": 71136,
      "componentType": 5126,
      "count": 16,
      "max": [
        0.87852936983108521,
        -0.35365626215934753,
        0.58224517107009888
      ],
      "min": [
        0.33808934688568115,
        -0.9346429705619812,
        -0.12824054062366486
      ],
      "type": "VEC3"
    },
    {
      "bufferView": 3,
      "byteOffset": 47296,
      "componentType": 5126,
      "count": 16,
      "max": [
        0.94058167934417725,
        0.88456308841705322,
        0.0729561448097229,
        1
      ],
      "min": [
        0.45958912372589111,
        0.3316376805305481,
        -0.079536609351634979,
        1
      ],
      "type": "VEC4"
    },
    {
      "bufferView": 1,
      "byteOffset": 23648,
      "componentType": 5126,
      "count": 16,
      "max": [
        2.2269101142883301,
        1.5857100486755371
      ],
      "min": [
        -0.04679495096206665,
        -0.17124590277671814
      ],
      "type": "VEC2"
    },
    {
      "bufferView": 0,
      "byteOffset": 50928,
      "componentType": 5125,
      "count": 54,
      "max": [
        15
      ],
      "min": [
        0
      ],
      "type": "SCALAR"
    },
    {
      "bufferView": 2,
      "byteOffset": 71328,
      "componentType": 5126,
      "count": 16,
      "max": [
        -0.56856465339660645,
        -8.0839366912841797,
        17.629589080810547
      ],
      "min": [
        -1.931799054145813,
        -9.2991962432861328,
        16.257219314575195
      ],
      "type": "VEC3"
    },
    {
      "bufferView": 2,
      "byteOffset": 71520,
      "componentType": 5126,
      "count": 16,
      "max": [
        -0.3380887508392334,
        -0.35365673899650574,
        0.58224529027938843
      ],
      "min": [
        -0.87852901220321655,
        -0.9346432089805603,
        -0.12824039161205292
      ],
      "type": "VEC3"
    },
    {
      "bufferView": 3,
      "byteOffset": 47552,
      "componentType": 5126,
      "count": 16,
      "max": [
        0.94058197736740112,
        -0.33163708448410034,
        0.079536616802215576,
        1
      ],
      "min": [
        0.45958960056304932,
        -0.88456279039382935,
        -0.072956062853336334,
        1
      ],
      "type": "VEC4"
    },
    {
      "bufferView": 1,
      "byteOffset": 23776,
      "componentType": 5126,
      "count": 16,
      "max": [
        1.0468000173568726,
        1.5857100486755371
      ],
      "min": [
        -1.2269099950790405,
        -0.17124590277671814
      ],
      "type": "VEC2"
    },
    {
      "bufferView": 0,
      "byteOffset": 51144,
      "componentType": 5125,
      "count": 54,
      "max": [
        15
      ],
      "min": [
        0
      ],
      "type": "SCALAR"
    },
    {
      "bufferView": 4,
      "componentType": 5126,
      "count": 1,
      "max": [
        1,
        0,
        0,
        0,
        0,
        1,
        0,
        0,
        0,
        0,
        1,
        0,
        0,
        0,
        0,
        1
      ],
      "min": [
        1,
        0,
        0,
        0,
        0,
        1,
        0,
        0,
        0,
        0,
        1,
        0,
        0,
        0,
        0,
        1
      ],
      "type": "MAT4"
    }
  ],
  "asset": {
    "extras": {
      "author": "akennedy007 (https://sketchfab.com/akennedy007)",
      "license": "CC-BY-4.0 (http://creativecommons.org/licenses/by/4.0/)",
      "source": "https://sketchfab.com/models/0e78249e434a4619b579bc81cfb099ec",
      "title": "- Mario Kart 8 - Bowser"
    },
    "generator": "Sketchfab-3.20.7",
    "version": "2.0"
  },
  "bufferViews": [
    {
      "buffer": 0,
      "byteLength": 51360,
      "byteOffset": 0,
      "name": "floatBufferViews",
      "target": 34963
    },
    {
      "buffer": 0,
      "byteLength": 23904,
      "byteOffset": 51360,
      "byteStride": 8,
      "name": "floatBufferViews",
      "target": 34962
    },
    {
      "buffer": 0,
      "byteLength": 71712,
      "byteOffset": 75264,
      "byteStride": 12,
      "name": "floatBufferViews",
      "target": 34962
    },
    {
      "buffer": 0,
      "byteLength": 47808,
      "byteOffset": 146976,
      "byteStride": 16,
      "name": "floatBufferViews",
      "target": 34962
    },
    {
      "buffer": 0,
      "byteLength": 64,
      "byteOffset": 194784,
      "byteStride": 64,
      "name": "floatBufferViews"
    }
  ],
  "buffers": [
    {
      "byteLength": 194848,
      "uri": "scene.bin"
    }
  ],
  "images": [
    {
      "uri": "textures/Pupil__m_PupilL_baseColor.png"
    },
    {
      "uri": "textures/Body__m_Eye_baseColor.png"
    },
    {
      "uri": "textures/Pupil__m_PupilR_baseColor.png"
    },
    {
      "uri": "textures/Body__m_Body_baseColor.png"
    }
  ],
  "materials": [
    {
      "doubleSided": true,
      "emissiveFactor": [
        0,
        0,
        0
      ],
      "name": "Body__m_Body",
      "pbrMetallicRoughness": {
        "baseColorFactor": [
          1,
          1,
          1,
          1
        ],
        "baseColorTexture": {
          "index": 3,
          "texCoord": 0
        },
        "metallicFactor": 0,
        "roughnessFactor": 0.59999999999999998
      }
    },
    {
      "doubleSided": true,
      "emissiveFactor": [
        0,
        0,
        0
      ],
      "name": "Body__m_Eye",
      "pbrMetallicRoughness": {
        "baseColorFactor": [
          1,
          1,
          1,
          1
        ],
        "baseColorTexture": {
          "index": 1,
          "texCoord": 0
        },
        "metallicFactor": 0,
        "roughnessFactor": 0.59999999999999998
      }
    },
    {
      "alphaMode": "BLEND",
      "doubleSided": true,
      "emissiveFactor": [
        0,
        0,
        0
      ],
      "name": "Pupil__m_PupilL",
      "pbrMetallicRoughness": {
        "baseColorFactor": [
          1,
          1,
          1,
          0
        ],
        "baseColorTexture": {
          "index": 0,
          "texCoord": 0
        },
        "metallicFactor": 0,
        "roughnessFactor": 1
      }
    },
    {
      "alphaMode": "BLEND",
      "doubleSided": true,
      "emissiveFactor": [
        0,
        0,
        0
      ],
      "name": "Pupil__m_PupilR",
      "pbrMetallicRoughness": {
        "baseColorFactor": [
          1,
          1,
          1,
          0
        ],
        "baseColorTexture": {
          "index": 2,
          "texCoord": 0
        },
        "metallicFactor": 0,
        "roughnessFactor": 0.59999999999999998
      }
    }
  ],
  "meshes": [
    {
      "primitives": [
        {
          "attributes": {
            "NORMAL": 1,
            "POSITION": 0,
            "TANGENT": 2,
            "TEXCOORD_0": 3
          },
          "indices": 4,
          "material": 0,
          "mode": 4
        }
      ]
    },
    {
      "primitives": [
        {
          "attributes": {
            "NORMAL": 6,
            "POSITION": 5,
            "TANGENT": 7,
            "TEXCOORD_0": 8
          },
          "indices": 9,
          "material": 1,
          "mode": 4
        }
      ]
    },
    {
      "primitives": [
        {
          "attributes": {
            "NORMAL": 11,
            "POSITION": 10,
            "TANGENT": 12,
            "TEXCOORD_0": 13
          },
          "indices": 14,
          "material": 2,
          "mode": 4
        }
      ]
    },
    {
      "primitives": [
        {
          "attributes": {
            "NORMAL": 16,
            "POSITION": 15,
            "TANGENT": 17,
            "TEXCOORD_0": 18
          },
          "indices": 19,
          "material": 3,
          "mode": 4
        }
      ]
    }
  ],
  "nodes": [
    {
      "children": [
        1
      ],
      "name": "RootNode (gltf orientation matrix)",
      "rotation": [
        -0.70710678118654746,
        -0,
        -0,
        0.70710678118654757
      ]
    },
    {
      "children": [
        2
      ],
      "name": "RootNode (model correction matrix)"
    },
    {
      "children": [
        3
      ],
      "name": "Collada visual scene group"
    },
    {
      "children": [
        4
      ],
      "matrix": [
        1,
        2.2204499999999999e-16,
        -2.2204499999999999e-16,
        0,
        0,
        -1,
        -3.2584099999999999e-07,
        0,
        -2.2204499999999999e-16,
        3.2584099999999999e-07,
        -1,
        0,
        0,
        0,
        0,
        1
      ],
      "name": "Armature"
    },
    {
      "children": [
        5,
        6,
        7,
        8,
        9
      ],
      "name": ""
    },
    {
      "name": "_rootJoint"
    },
    {
      "mesh": 0,
      "name": ""
    },
    {
      "mesh": 1,
      "name": ""
    },
    {
      "mesh": 2,
      "name": ""
    },
    {
      "mesh": 3,
      "name": ""
    }
  ],
  "samplers": [
    {
      "magFilter": 9729,
      "minFilter": 9987,
      "wrapS": 10497,
      "wrapT": 10497
    }
  ],
  "scene": 0,
  "scenes": [
    {
      "name": "OSG_Scene",
      "nodes": [
        0
      ]
    }
  ],
  "skins": [
    {
      "inverseBindMatrices": 20,
      "joints": [
        5
      ],
      "skeleton": 5
    }
  ],
  "textures": [
    {
      "sampler": 0,
      "source": 0
    },
    {
      "sampler": 0,
      "source": 1
    },
    {
      "sampler": 0,
      "source": 2
    },
    {
      "sampler": 0,
      "source": 3
    }
  ]
}

